<?xml version="1.0" encoding="iso-8859-1"?>
<!-- Uploaded to: SVG Repo, www.svgrepo.com, Generator: SVG Repo Mixer Tools -->
<svg fill="#a0a0a0" height="800px" width="800px" version="1.1" id="Layer_1" xmlns="http://www.w3.org/2000/svg" xmlns:xlink="http://www.w3.org/1999/xlink" 
	 viewBox="0 0 512.001 512.001" xml:space="preserve">
<g>
	<g>
		<path d="M450.769,4.871c-6.494-6.495-17.026-6.495-23.521,0l-13.187,13.187l-0.284-0.284c-6.494-6.494-17.026-6.495-23.521,0
			c-2.384,2.384-3.884,5.313-4.518,8.385c-3.073,0.634-6.001,2.134-8.385,4.518c-6.495,6.495-6.495,17.026,0,23.521l0.283,0.283
			L343.787,88.33c-13.565-9.026-29.483-13.877-46.148-13.877c-22.315,0-43.295,8.69-59.073,24.469l-22.081,22.081
			c-6.495,6.495-6.495,17.026-0.001,23.521c0.718,0.717,0.833,1.536,0.803,2.096c-0.03,0.559-0.233,1.359-1.025,1.996
			l-31.127,25.014c-0.822,0.661-1.679,0.666-2.249,0.557c-0.572-0.111-1.362-0.437-1.876-1.358l-0.702-1.255
			c-6.107-10.915-16.714-18.159-29.101-19.875c-12.392-1.716-24.564,2.373-33.407,11.214l-32.176,32.175l-25.434,14.985
			c-12.917,7.47-23.214,18.166-31.472,32.697C3.596,286.967,11.542,343.329,48.044,379.83l27.764,27.765
			c22.256,22.257,51.897,33.897,81.663,33.896c19.047,0,38.144-4.766,55.391-14.566c14.534-8.256,25.231-18.552,32.701-31.466
			l14.989-25.44l32.176-32.175c8.844-8.844,12.931-21.021,11.214-33.409c-1.718-12.387-8.961-22.994-19.88-29.103l-1.252-0.7
			c-0.921-0.516-1.247-1.305-1.358-1.877c-0.112-0.572-0.105-1.426,0.557-2.249l25.014-31.127c0.635-0.792,1.437-0.994,1.997-1.025
			c0.555-0.033,1.377,0.084,2.096,0.803c6.494,6.494,17.026,6.495,23.521,0l22.079-22.079c15.779-15.779,24.47-36.76,24.47-59.075
			c0-16.664-4.851-32.582-13.877-46.147l33.879-33.879c3.163,2.87,7.153,4.323,11.154,4.323c4.257,0,8.513-1.623,11.76-4.872
			c2.384-2.384,3.885-5.313,4.518-8.386c3.072-0.634,6.001-2.134,8.385-4.518c6.301-6.3,6.471-16.387,0.548-22.915l13.216-13.216
			C457.264,21.897,457.264,11.367,450.769,4.871z M99.408,355.258l37.064-48.151l12.063,12.063l-48.151,37.064L99.408,355.258z
			 M333.191,193.556l-13.2,13.2c-4.087-1.288-8.407-1.853-12.778-1.617c-10.2,0.554-19.721,5.439-26.122,13.402l-25.014,31.127
			c-6.653,8.278-9.307,19.005-7.28,29.43c2.025,10.425,8.502,19.378,17.774,24.565l1.252,0.7c2.381,1.332,3.006,3.476,3.166,4.636
			c0.162,1.16,0.143,3.393-1.785,5.322l-33.671,33.671c-0.993,0.993-1.856,2.108-2.569,3.318l-16.096,27.32
			c-0.025,0.044-0.051,0.088-0.076,0.132c-4.431,7.681-11.092,13.975-20.365,19.245c-27.759,15.776-62.385,12.984-87.963-6.055
			c0.213-0.149,0.428-0.288,0.635-0.448l74.73-57.524c3.792-2.918,6.143-7.329,6.452-12.105c0.309-4.776-1.454-9.452-4.837-12.835
			l-38.841-38.842c-3.383-3.384-8.057-5.149-12.835-4.837c-4.776,0.309-9.185,2.66-12.105,6.452l-57.525,74.732
			c-0.16,0.207-0.297,0.425-0.445,0.638c-19.045-25.579-21.835-60.211-6.056-87.971c5.268-9.27,11.564-15.93,19.244-20.362
			c0.044-0.026,0.088-0.051,0.131-0.077l27.32-16.095c1.21-0.713,2.325-1.576,3.318-2.569l33.671-33.671
			c1.508-1.508,3.202-1.848,4.423-1.848c0.342,0,0.645,0.027,0.898,0.061c1.16,0.161,3.304,0.786,4.637,3.166l0.702,1.255
			c5.185,9.268,14.137,15.746,24.562,17.772c10.423,2.023,21.151-0.628,29.431-7.28l31.126-25.014
			c7.964-6.399,12.849-15.92,13.403-26.121c0.237-4.364-0.327-8.691-1.617-12.778l13.201-13.201
			c9.496-9.497,22.123-14.727,35.552-14.727c7.677,0,15.09,1.715,21.807,4.954l-92.638,92.638c-6.495,6.495-6.495,17.026,0,23.521
			c3.248,3.248,7.504,4.872,11.76,4.872s8.513-1.623,11.76-4.872l92.638-92.637c3.238,6.717,4.954,14.129,4.954,21.807
			C347.918,171.433,342.688,184.059,333.191,193.556z"/>
	</g>
</g>
<g>
	<g>
		<path d="M202.835,224.823c-2.71-8.777-12.023-13.695-20.799-10.986l-29.284,9.04c-8.776,2.709-13.696,12.02-10.986,20.798
			c2.205,7.143,8.784,11.73,15.887,11.73c1.625,0,3.278-0.24,4.912-0.744l29.284-9.04
			C200.624,242.912,205.544,233.6,202.835,224.823z"/>
	</g>
</g>
<g>
	<g>
		<path d="M230.819,252.808c-8.782-2.711-18.088,2.209-20.799,10.986l-9.04,29.284c-2.71,8.777,2.21,18.089,10.986,20.798
			c1.635,0.504,3.286,0.744,4.912,0.744c7.103,0,13.681-4.588,15.887-11.73l9.04-29.284
			C244.513,264.828,239.595,255.516,230.819,252.808z"/>
	</g>
</g>
<g>
	<g>
		<path d="M492.982,222.578c-6.494-6.495-17.026-6.495-23.521,0L239.408,452.63c-0.003,0.003-0.008,0.007-0.011,0.01
			c-0.003,0.003-0.007,0.008-0.01,0.011l-21.982,21.982c-6.495,6.495-6.495,17.026,0,23.521c3.248,3.248,7.504,4.872,11.76,4.872
			s8.513-1.623,11.76-4.872l10.232-10.232l19.208,19.208c3.248,3.248,7.504,4.871,11.76,4.871c4.257,0,8.513-1.623,11.76-4.872
			l186.492-186.492c3.447-3.446,5.208-8.233,4.819-13.092l-3.989-49.673l11.773-11.773
			C499.478,239.603,499.478,229.073,492.982,222.578z M282.126,471.848l-7.447-7.447l17.286-17.286l7.447,7.447L282.126,471.848z
			 M322.933,431.042l-7.447-7.447l134.833-134.833l1.107,13.786L322.933,431.042z"/>
	</g>
</g>
</svg>